<?xml version="1.0" encoding="utf-8" ?>
<!DOCTYPE svg PUBLIC "-//W3C//DTD SVG 20010904//EN"
  "http://www.w3.org/TR/2001/REC-SVG-20010904/DTD/svg10.dtd">
<svg
  version="1.0"
  xmlns="http://www.w3.org/2000/svg"
  width="612px"
  height="612px"
  viewBox="0 0 612 612"
  preserveAspectRatio="xMidYMid meet"
>
 <g fill="white">
  <path
      d="M277 534.4 c-1.4 -0.2 -6.5 -0.9 -11.5 -1.5 -17.9 -2.1 -41.4 -8.9 -52.2 -15 -5.5 -3.2 -10.8 -8.6 -12.4 -12.6 -0.5 -1.4 -2.3 -11.8 -3.9 -23.2 -2 -13.9 -3.8 -22.5 -5.4 -26.6 -2.7 -6.6 -6.8 -31.1 -8.6 -51.5 -0.6 -6.9 -2.3 -24 -3.7 -38 -1.4 -14 -2.6 -31.6 -2.7 -39 -0.1 -12.7 0 -13.8 2.5 -18.5 2.2 -4.1 2.8 -6.9 3.3 -16 1.2 -18.9 5.5 -30.7 16.4 -45.2 6.8 -8.9 12.5 -14.1 27.7 -25.4 12.2 -9 24.8 -21.6 29.4 -29.2 6.6 -11.3 11.1 -28.9 11.1 -44.2 0 -5.7 -0.2 -6.1 -3.6 -8.9 -9.2 -7.3 -9.8 -21.3 -1.3 -29.4 2.4 -2.2 2.9 -3.5 2.9 -7.6 0 -7.7 2 -12.6 7.1 -17.8 6.6 -6.6 12.3 -8.1 30.4 -8.1 32.2 0.1 44.4 7 46.2 26 0.5 5.2 1.3 7.6 4 11.5 5.2 7.8 4.1 17 -2.7 22 l-3.2 2.3 0.5 15 c1 30.5 7.6 43.8 31.6 63.8 11.7 9.8 26.7 24 32.4 30.6 9.7 11.3 14.9 26.1 16.5 47.3 0.8 11 1 11.8 4 15.2 4.1 4.7 4.6 9 3.8 32.7 -1.6 48.6 -7.3 96.1 -13.5 111.6 -1.1 2.9 -3 11.9 -4.2 20 -1.1 8.1 -3.4 19 -5.1 24.2 -3.9 12.4 -8.4 17.1 -21.2 22.4 -16.9 7.1 -31 10.2 -57.1 12.7 -10.1 0.9 -51.7 1.2 -57.5 0.4z m-14.1 -16.6 c1.2 -3.1 -0.2 -5.3 -4.1 -6.7 -1.8 -0.7 -5.3 -2.2 -7.8 -3.4 -5.5 -2.7 -8.3 -7.7 -10.4 -18.9 -2.7 -13.8 -6.3 -18.4 -17.3 -21.8 -7.5 -2.3 -9.3 -2.4 -12.7 -0.9 -3.6 1.7 -4.5 5.3 -3.6 14.8 1.1 10.3 3.5 18.7 6.6 22.8 5.7 7.5 28.3 16 43.2 16.2 4.6 0.1 5.4 -0.2 6.1 -2.1z m114.8 -3.2 c7.7 -2 16.4 -6.3 20 -9.8 1.7 -1.6 4.3 -5.7 5.8 -9 2.7 -6 6.9 -26.2 6 -28.6 -0.7 -1.8 -5.4 -0.8 -11.7 2.4 -5.1 2.6 -5.3 3 -6.3 12.9 -1.5 14.3 -5.6 20.3 -17.2 24.8 -7.3 2.9 -11 5.8 -9.8 7.6 0.9 1.5 7 1.3 13.2 -0.3z m-43.1 -45.7 c26.8 -1.8 60.1 -8.3 72 -14 2.5 -1.2 4.8 -3.3 6.1 -5.7 5.3 -9.3 11 -54.3 13.2 -103.8 0.9 -18.8 0.4 -26.5 -1.6 -28.5 -0.4 -0.4 -4.5 0.3 -9 1.6 -18.1 5.3 -41.4 7.4 -87.8 8.2 -64.5 1 -117.5 -4 -134.6 -12.8 -3.1 -1.5 -4.4 -1.8 -5.3 -0.9 -3.2 3.3 3.3 88.9 9.5 124.5 2 11.6 4.9 14.1 22.7 19.4 19.1 5.7 47 10.5 70 12 17.6 1.2 27.3 1.2 44.8 0z m-108 -162.2 c2.5 -2.2 2.7 -3.1 3.9 -16.3 2.2 -23.6 4.3 -27.3 28.5 -51.9 20.8 -21.1 25.3 -27.4 30 -42.2 3.5 -10.8 5 -23.8 5 -42.3 l0 -14 -3.2 -0.1 c-5.1 -0.2 -8 0.1 -11.5 1.2 l-3.3 1.1 0 7.6 c0 8.9 -2.2 24.3 -4.6 32.2 -2.3 7.6 -7.5 17.6 -12.2 23.5 -7.6 9.6 -15.2 16.5 -36.6 33.4 -14.8 11.7 -21.5 21.2 -25.5 36.3 -3 11.4 -3.5 19.6 -1.4 23.8 4.1 8 24.6 13.1 30.9 7.7z m182.9 0.8 c2.1 -0.8 3.9 -2.5 4.5 -4 2.1 -5.4 0.7 -21 -2.9 -32.5 -2.8 -8.9 -8.9 -18 -18.7 -27.7 -11.7 -11.7 -14.4 -11.1 -7.9 1.7 8.2 16.2 12.4 37.6 12.5 63.3 0 1.3 8.9 0.8 12.5 -0.8z m-61.5 -109.5 c0 -0.6 -1.1 -3.2 -2.4 -5.9 -4.7 -9.1 -8.6 -30.5 -8.6 -46.7 l0 -5.4 -5.6 0 -5.7 0 0.6 12.8 c0.3 7 1.3 15.4 2.1 18.7 2.4 9.1 8.1 19.8 12.6 23.9 3.9 3.5 7 4.7 7 2.6z m-60 -69 c5.2 -0.5 13.5 -0.9 18.3 -1 8 0 9 -0.2 11.2 -2.5 3.3 -3.2 3.4 -8.3 0.1 -11.4 -6.1 -5.7 -36.7 -5.2 -48.5 0.8 -6.4 3.3 -8.6 10.2 -4.8 15 0.9 1 2.7 1.2 7.7 0.7 3.6 -0.4 10.8 -1.1 16 -1.6z m57.8 -0.6 c5 -3.4 4.6 -11.7 -0.4 -13 -3.3 -0.8 -3.7 -0.3 -5 6.4 -1.6 7.8 0.4 10.2 5.4 6.6z m-47.8 -27.2 c4.1 -0.6 4.5 -1 4.8 -3.7 0.7 -5.7 5.5 -8.2 10.3 -5.2 1.7 1 2.2 0.9 3.5 -0.7 1.7 -2.4 1.8 -5.8 0.2 -7.4 -1.2 -1.2 -21.2 -1.7 -25.3 -0.6 -1.1 0.3 -2.8 1.8 -3.7 3.5 -1.5 2.6 -2.2 2.9 -6.7 2.9 -4 0 -5.1 0.4 -5.6 1.9 -0.8 2.6 1.4 7 4.4 8.6 2.8 1.5 10.7 1.8 18.1 0.7z"
    />
  <path
      d="M283 435.3 c-5.7 -2 -7.4 -7.9 -4.5 -15 1.6 -3.8 8.8 -14.4 14.2 -20.7 1.8 -2.2 3.3 -4.5 3.3 -5.2 0 -0.8 -2.4 -5.1 -5.4 -9.7 -6.9 -10.7 -10.6 -18 -10.6 -21 0 -3 3.7 -6.5 7.6 -7.3 4.3 -0.8 7.7 2.4 14.4 13.5 3 5 5.8 9.1 6.1 9.1 0.3 0 3.4 -3.6 6.8 -8 7.9 -9.9 13.4 -15 16.5 -15 3.1 0 7 3.2 8.6 6.9 1.1 2.7 0.9 3.4 -1.9 7.4 -1.7 2.5 -6.6 8.7 -11.1 13.8 -4.4 5.2 -8 9.7 -8 10 0 0.3 3.4 5.1 7.6 10.5 14.2 18.3 15.6 21.7 11.1 26.9 -1.6 2 -3.5 2.8 -6.7 3.2 -5.6 0.6 -6.4 -0.1 -15.5 -13.4 -3.7 -5.4 -7.1 -10.2 -7.5 -10.6 -0.4 -0.5 -3.6 3.6 -7 9.1 -8.3 13.4 -12.8 17.3 -18 15.5z"
    />
  <path
      d="M358.3 433.5 c-1.2 -0.8 -2.4 -2.8 -2.8 -4.4 -0.7 -3.4 1.2 -7.5 12 -25.8 l7.3 -12.2 -6.3 -7.6 c-11.6 -14 -13.9 -21.2 -8 -25.1 5.7 -3.7 10.3 -1 19.2 11.4 2.5 3.4 4.6 6.2 4.8 6.2 0.2 0 2.7 -4.3 5.6 -9.6 7.8 -14.1 11.1 -16.2 17.9 -11.5 5 3.6 3.5 8.6 -8.2 25.9 l-4.9 7.3 9.5 12.7 c7.3 9.6 9.6 13.4 9.6 15.7 0 3.9 -2.1 6.9 -6 8.5 -4.9 2 -7.9 0 -15.1 -10 -3.5 -4.9 -6.7 -8.9 -7.1 -8.9 -0.3 -0.1 -3.6 5.6 -7.3 12.7 -3.6 7 -7.5 13.5 -8.7 14.5 -2.5 2.1 -8.6 2.2 -11.5 0.2z"
    />
  <path
      d="M245.7 430.9 c-1.5 -1.1 -5.2 -6.6 -8.4 -12.2 -8.7 -15.6 -7.4 -14.9 -12.7 -6.8 -6.1 9.1 -9.9 13.1 -12.6 13.1 -3.3 0 -7.8 -3 -9.1 -6.2 -1.6 -3.9 -0.1 -7.1 9 -19.2 8.5 -11.3 8.5 -8.4 0.1 -22.1 -5.4 -8.8 -9.3 -18.1 -8.5 -20.6 0.9 -2.8 5.4 -5.9 8.7 -5.9 3.9 0 7.3 3.9 13.4 15.1 2.7 4.9 5.1 8.9 5.4 8.9 0.3 -0.1 3.7 -4.2 7.5 -9.2 3.9 -5 8.2 -10 9.6 -11 2.4 -1.8 2.8 -1.9 6.2 -0.4 4.2 1.7 6.3 5.2 5.3 9 -0.3 1.4 -4.7 7.9 -9.6 14.6 -5 6.6 -9 12.5 -9 13.1 0 0.6 0.8 2.3 1.9 3.7 4.9 7 15.9 26 16.1 27.7 0.5 4 -0.1 5.6 -2.5 8 -3 3.1 -7.3 3.2 -10.8 0.4z"
    />
 </g>
</svg>
